<?xml version="1.0" encoding="UTF-8"?>
<svg width="142px" height="36px" viewBox="0 0 142 36" version="1.1" xmlns="http://www.w3.org/2000/svg" xmlns:xlink="http://www.w3.org/1999/xlink">
    <!-- Generator: sketchtool 52.5 (67469) - http://www.bohemiancoding.com/sketch -->
    <title>2FD9F4DF-341A-42BE-BB43-E3A98DAE15FA</title>
    <desc>Created with sketchtool.</desc>
    <g id="Symbols" stroke="none" stroke-width="1" fill="none" fill-rule="evenodd">
        <g id="Headers/User-data" transform="translate(-30.000000, -20.000000)">
            <g id="logo" transform="translate(30.000000, 20.000000)">
                <g>
                    <g id="Group-3" transform="translate(48.896226, 10.472727)" fill="#FFFFFF">
                        <path d="M70.6957467,11.1697083 C70.6957467,12.7418081 70.5503796,13.6772688 70.2180123,14.4135152 C69.9063453,15.0305449 69.3039441,15.667184 68.68061,16.0455576 C67.7877072,16.622477 66.7282719,16.8814111 65.7518703,16.8814111 C65.0871357,16.8814111 61.6597286,16.6623645 61.0156943,13.3189504 C60.9535935,13.0203517 60.9326606,12.6820884 60.9119603,12.3438251 L64.2147005,12.3438251 C64.2147005,12.4830969 64.2354008,12.6025363 64.2563337,12.7418081 C64.4847344,13.697324 65.1078359,14.2742434 65.8972373,14.2742434 C66.7489722,14.2544111 67.2060063,13.8165406 67.3927739,13.3189504 C67.5797742,12.8614704 67.600707,12.3438251 67.600707,11.8861223 L67.600707,1.87571235 L70.6957467,1.87571235 L70.6957467,11.1697083" id="Fill-8"></path>
                        <path d="M74.984039,10.8349974 C74.984039,12.1841387 75.9976367,14.1484245 78.4385172,14.1484245 C79.9484906,14.1484245 80.9414736,13.3944338 81.4589273,12.402294 C81.7276141,11.9262179 81.8517659,11.4103763 81.8932271,10.8745408 C81.9138419,10.3589214 81.8103048,9.82308591 81.5828475,9.34700986 C81.1070866,8.31532664 80.0520277,7.42248968 78.4179025,7.42248968 C76.225094,7.42248968 74.984039,9.12885463 74.984039,10.8152257 L74.984039,10.8349974 Z M84.5824113,16.2317848 L81.8726123,16.2317848 L81.8726123,14.6642661 C81.1485478,15.9340984 79.6383427,16.5687924 78.045447,16.5687924 C74.404741,16.5687924 72.2737768,13.8507381 72.2737768,10.7754601 C72.2737768,7.3431807 74.8596555,5.00189959 78.045447,5.00189959 C80.1141036,5.00189959 81.376005,6.05357667 81.8726123,6.92641978 L81.8726123,5.33912938 L84.5824113,5.33912938 L84.5824113,16.2317848 Z" id="Fill-9"></path>
                        <path d="M87.4228654,5.33986177 L89.975241,5.33986177 L89.975241,6.77163698 C90.4691228,5.79737974 91.3953528,5.02193688 93.1037736,5.00189959 L93.1037736,7.62656106 L92.9802455,7.62656106 C91.0867631,7.62656106 90.1192802,8.48170778 90.1192802,10.3705557 L90.1192802,16.2561737 L87.4228654,16.2561737 L87.4228654,5.33986177" id="Fill-10"></path>
                        <path d="M0.0078901503,0.137552239 L1.59854445,0.137552239 L1.59854445,6.85572863 L10.1262189,6.85572863 L10.1262189,0.137552239 L11.7168732,0.137552239 L11.7168732,15.6309362 L10.1262189,15.6309362 L10.1262189,8.30002714 L1.59854445,8.30002714 L1.59854445,15.6309362 L0.0078901503,15.6309362 L0.0078901503,0.137552239 Z M19.3387584,14.0334545 L19.3829432,14.0334545 L22.5863443,5.38954681 L24.2211834,5.38954681 L19.0736493,18.2788168 C18.7643539,19.0666199 18.3703763,19.6975824 17.8917048,20.1717232 C17.4130333,20.645864 16.7244931,20.8829308 15.8260635,20.8829308 C15.3694845,20.8829308 14.9202764,20.8391646 14.4784258,20.7516309 L14.6330728,19.3948657 C14.9865533,19.5115772 15.3547566,19.5699322 15.7376938,19.5699322 C16.2531862,19.5699322 16.6582099,19.4131033 16.9527769,19.099441 C17.247344,18.7857786 17.5050864,18.3371752 17.7260117,17.7536174 L18.5655237,15.6090529 L14.1470395,5.38954681 L15.8260635,5.38954681 L19.3387584,14.0334545 Z M28.0652646,20.8829308 L26.56298,20.8829308 L26.56298,5.38954681 L28.0652646,5.38954681 L28.0652646,7.16209498 L28.1315419,7.16209498 C28.5586642,6.49100343 29.1293793,5.98404513 29.8437045,5.64120488 C30.5580297,5.29836464 31.2833903,5.12694708 32.019808,5.12694708 C32.8298674,5.12694708 33.5625921,5.26554 34.2180038,5.54272999 C34.8734156,5.81991997 35.4330847,6.1992269 35.8970278,6.68066214 C36.360971,7.16209739 36.7218102,7.73105778 36.9795564,8.38756038 C37.2373026,9.04406298 37.3661738,9.75161629 37.3661738,10.5102415 C37.3661738,11.2688668 37.2373026,11.9764201 36.9795564,12.6329227 C36.7218102,13.2894253 36.360971,13.8583857 35.8970278,14.3398209 C35.4330847,14.8212561 34.8734156,15.2005631 34.2180038,15.4777531 C33.5625921,15.754943 32.8298674,15.893536 32.019808,15.893536 C31.2833903,15.893536 30.5580297,15.7221184 29.8437045,15.3792782 C29.1293793,15.0364379 28.5586642,14.5440683 28.1315419,13.9021547 L28.0652646,13.9021547 L28.0652646,20.8829308 Z M35.7755195,10.5102415 C35.7755195,9.9412726 35.6871507,9.40513684 35.5104105,8.90181818 C35.3336702,8.39849952 35.0796099,7.96083768 34.7482219,7.58881954 C34.416834,7.2168014 34.0081283,6.92137966 33.5220926,6.70254545 C33.0360569,6.48371125 32.4837519,6.37429579 31.865161,6.37429579 C31.2907552,6.37429579 30.7605424,6.48006407 30.2745067,6.6916038 C29.788471,6.90314353 29.3687192,7.19491809 29.0152387,7.56693623 C28.6617582,7.93895437 28.3856057,8.37661621 28.1867729,8.87993487 C27.9879402,9.38325353 27.8885253,9.92668365 27.8885253,10.5102415 C27.8885253,11.0937994 27.9879402,11.6372295 28.1867729,12.1405482 C28.3856057,12.6438668 28.6617582,13.0778815 29.0152387,13.4426052 C29.3687192,13.8073288 29.788471,14.0954562 30.2745067,14.3069959 C30.7605424,14.5185357 31.2907552,14.6243039 31.865161,14.6243039 C32.4837519,14.6243039 33.0360569,14.5185357 33.5220926,14.3069959 C34.0081283,14.0954562 34.416834,13.8036816 34.7482219,13.4316635 C35.0796099,13.0596454 35.3336702,12.6219835 35.5104105,12.1186649 C35.6871507,11.6153462 35.7755195,11.0792104 35.7755195,10.5102415 Z M48.4786615,9.72244233 C48.4344764,8.75957185 48.1215036,7.96083899 47.5397336,7.32621981 C46.9579636,6.69160063 46.1295061,6.37429579 45.0543363,6.37429579 C44.5535722,6.37429579 44.089636,6.46547534 43.6625138,6.64783718 C43.2353915,6.83019901 42.8598241,7.07820739 42.5358003,7.39186974 C42.2117765,7.7055321 41.9540342,8.06295593 41.7625656,8.46415197 C41.571097,8.865348 41.460636,9.28477393 41.4311792,9.72244233 L48.4786615,9.72244233 Z M50.0030385,10.2038752 L50.0030385,10.5321248 C50.0030385,10.6488364 49.9956745,10.7728406 49.9809461,10.9041411 L41.4090868,10.9041411 C41.4238152,11.4147542 41.5269121,11.8961823 41.7183807,12.3484396 C41.9098493,12.800697 42.1749557,13.1945926 42.5137079,13.5301384 C42.85246,13.8656842 43.2501196,14.1319285 43.7066986,14.3288792 C44.1632776,14.52583 44.65667,14.6243039 45.1868908,14.6243039 C45.9674936,14.6243039 46.6413057,14.445592 47.2083473,14.0881628 C47.7753889,13.7307336 48.2061868,13.3186021 48.5007539,12.8517558 L49.6274674,13.7270882 C49.0088765,14.5003024 48.3277003,15.054674 47.5839185,15.3902198 C46.8401366,15.7257656 46.0411353,15.893536 45.1868908,15.893536 C44.4210164,15.893536 43.7103839,15.7585902 43.0549722,15.4886947 C42.3995604,15.2187992 41.8362093,14.8431394 41.364902,14.3617042 C40.8935946,13.880269 40.5217093,13.3113086 40.2492347,12.654806 C39.9767602,11.9983034 39.8405249,11.2834557 39.8405249,10.5102415 C39.8405249,9.73702734 39.9730781,9.02217967 40.2381885,8.36567707 C40.5032989,7.70917447 40.8715022,7.14021408 41.3428096,6.65877883 C41.8141169,6.17734359 42.3664219,5.80168385 42.9997411,5.53178833 C43.6330604,5.26189282 44.3179186,5.12694708 45.0543363,5.12694708 C45.8643957,5.12694708 46.5787102,5.26189282 47.1973011,5.53178833 C47.815892,5.80168385 48.3313766,6.16640204 48.7437705,6.62595387 C49.1561645,7.08550569 49.4691373,7.62164144 49.6826984,8.2343772 C49.8962596,8.84711297 50.0030385,9.50360573 50.0030385,10.2038752 Z M53.228532,7.64352782 C53.228532,7.36633783 53.2211679,7.00891399 53.2064396,6.57124559 C53.1917112,6.13357719 53.169619,5.73968153 53.1401623,5.38954681 L54.5761697,5.38954681 C54.6056264,5.6667368 54.6277186,5.97310009 54.6424469,6.30864586 C54.6571753,6.64419164 54.6645393,6.92137747 54.6645393,7.14021167 L54.7087242,7.14021167 C55.0032913,6.54206485 55.4451353,6.05698965 56.0342694,5.68497151 C56.6234036,5.31295336 57.2861696,5.12694708 58.0225873,5.12694708 C58.2140559,5.12694708 58.3871115,5.13424145 58.5417592,5.14883039 C58.6964069,5.16341934 58.8547343,5.1925968 59.0167462,5.23636364 L58.8179145,6.63689552 C58.7295443,6.60771763 58.582263,6.57854017 58.376066,6.54936228 C58.1698691,6.52018439 57.9636752,6.50559566 57.7574783,6.50559566 C57.3598127,6.50559566 56.9768812,6.5785393 56.6086724,6.72442877 C56.2404635,6.87031823 55.9201266,7.1000907 55.6476521,7.41375305 C55.3751775,7.72741541 55.1542555,8.12860543 54.9848794,8.61733514 C54.8155034,9.10606486 54.7308166,9.69326116 54.7308166,10.3789417 L54.7308166,15.6309362 L53.228532,15.6309362 L53.228532,7.64352782 Z" id="Hyper"></path>
                    </g>
                    <g id="Group-2">
                        <g id="Group">
                            <path d="M36.993974,7.73178886 L29.587485,0.503102126 C28.9004474,-0.167700709 27.7863126,-0.167700709 27.0992749,0.503102126 L26.1467248,1.43281547 C25.4596871,2.10338185 25.4596871,3.19056953 26.1467248,3.86137236 L33.5532138,11.0902955 C34.2404937,11.7608619 35.3543862,11.7608619 36.0414239,11.0902955 L36.993974,10.1605822 C37.6812539,9.48977937 37.6812539,8.4025917 36.993974,7.73178886" id="Fill-1" fill="#2AD8AD"></path>
                            <path d="M31.3809371,18.8071877 L17.0743673,32.5223357 C16.7061694,32.8755432 16.2126735,33.069669 15.6850274,33.069669 C15.1573812,33.069669 14.6636449,32.8755432 14.2952064,32.5223357 L6.87857944,25.4120754 L6.86006132,25.3943228 L23.945311,9.01513267 L31.3809371,16.1431456 C31.749616,16.4961225 31.9521129,16.9694482 31.9521129,17.4752819 C31.9521129,17.980885 31.749616,18.4542107 31.3809371,18.8071877 Z M3.62997224,19.6337208 L17.9365421,5.91880336 C18.3044995,5.56559588 18.7982358,5.37100898 19.325882,5.37100898 C19.8535282,5.37100898 20.347024,5.56559588 20.7154624,5.91880336 L21.3972659,6.57219109 L4.31177572,22.9513812 L3.62997224,22.2977629 C2.86399549,21.5629899 2.86399549,20.3680328 3.62997224,19.6337208 Z M33.5422662,14.0709335 L22.8767915,3.84659131 C21.9306839,2.94005617 20.6697684,2.44067797 19.325882,2.44067797 C17.9819956,2.44067797 16.7205991,2.94005617 15.774732,3.84659131 L1.46840268,17.5615088 C-0.489467561,19.4386729 -0.489467561,22.4925804 1.46840268,24.3697444 L12.1338774,34.5940867 C13.0797444,35.5008523 14.3409005,36 15.6850274,36 C17.0289137,36 18.2900698,35.5008523 19.2359368,34.5940867 L33.5422662,20.8793997 C34.4878927,19.972634 35.008805,18.7636131 35.008805,17.4752819 C35.008805,16.1867201 34.4878927,14.9776992 33.5422662,14.0709335 Z" id="Fill-2" fill="#FFFFFF"></path>
                        </g>
                    </g>
                </g>
            </g>
        </g>
    </g>
</svg>